<?xml version="1.0" encoding="iso-8859-1"?><!-- Generator: Adobe Illustrator 19.1.1, SVG Export Plug-In . SVG Version: 6.00 Build 0)  --><svg xmlns="http://www.w3.org/2000/svg" xmlns:xlink="http://www.w3.org/1999/xlink" viewBox="0 0 50 50" width="500px" height="500px"><path d="M44.083,25.208l2.82-4.779c0.113-0.238,0.127-0.51,0.041-0.759l-5.585-16c-0.17-0.486-0.683-0.763-1.181-0.642l-16.415,4c-0.314,0.077-0.572,0.3-0.692,0.6L21.323,12H16c-0.279,0-0.545,0.117-0.735,0.322l-12,13c-0.37,0.401-0.351,1.025,0.045,1.402l12.583,12C16.08,38.901,16.327,39,16.583,39h5.739l1.749,4.372c0.129,0.323,0.417,0.555,0.759,0.614l17.458,3c0.057,0.01,0.114,0.015,0.17,0.015c0.462,0,0.875-0.321,0.976-0.787l3.542-16.229c0.055-0.251,0.011-0.514-0.123-0.734L44.083,25.208z M21.323,12l14.094-2.583L28,24H11.167L21.323,12z M22.323,39L11.167,28H28l8.75,13.167L22.323,39z M40.386,38.897L32,26l7.333-14.583l4.75,13.792L40.386,38.897z"/></svg>